<svg xmlns="http://www.w3.org/2000/svg" viewBox="0 0 760 300" font-family="system-ui, -apple-system, Helvetica, Arial, sans-serif" font-size="12">
<text x="14" y="26" font-weight="600" fill="#111">Precision at the refusal threshold</text>
<line x1="58" y1="224.0" x2="308" y2="224.0" stroke="#e6e6e6"/>
<text x="50" y="228.0" text-anchor="end" fill="#666" font-size="11">0.00</text>
<line x1="58" y1="181.5" x2="308" y2="181.5" stroke="#e6e6e6"/>
<text x="50" y="185.5" text-anchor="end" fill="#666" font-size="11">0.25</text>
<line x1="58" y1="139.0" x2="308" y2="139.0" stroke="#e6e6e6"/>
<text x="50" y="143.0" text-anchor="end" fill="#666" font-size="11">0.50</text>
<line x1="58" y1="96.5" x2="308" y2="96.5" stroke="#e6e6e6"/>
<text x="50" y="100.5" text-anchor="end" fill="#666" font-size="11">0.75</text>
<line x1="58" y1="54.0" x2="308" y2="54.0" stroke="#e6e6e6"/>
<text x="50" y="58.0" text-anchor="end" fill="#666" font-size="11">1.00</text>
<rect x="104.0" y="128.1" width="58" height="95.9" fill="#9aa0a6"/>
<text x="133.0" y="121.1" text-anchor="middle" font-weight="600" fill="#111">0.564</text>
<text x="133.0" y="240.0" text-anchor="middle" fill="#444">before</text>
<text x="133.0" y="255.0" text-anchor="middle" fill="#666" font-size="11">threshold 0.25</text>
<rect x="204.0" y="76.1" width="58" height="147.9" fill="#34C759"/>
<text x="233.0" y="69.1" text-anchor="middle" font-weight="600" fill="#111">0.870</text>
<text x="233.0" y="240.0" text-anchor="middle" fill="#444">after</text>
<text x="233.0" y="255.0" text-anchor="middle" fill="#666" font-size="11">threshold 0.541</text>
<text x="58" y="278.0" fill="#666" font-size="11">recall after: 0.909 &#183; 42 questions over 7,377 chunks</text>
<text x="430" y="26" font-weight="600" fill="#111">F&#946; of each candidate signal (&#946; = 0.5)</text>
<rect x="430" y="54" width="228.0" height="26" fill="#34C759"/>
<text x="666.0" y="72.7" fill="#111" font-weight="600">0.877</text>
<text x="430" y="49.0" fill="#444" font-size="11">cosine, bi-encoder</text>
<rect x="430" y="96" width="196.6" height="26" fill="#9aa0a6"/>
<text x="634.6" y="114.7" fill="#111" font-weight="400">0.756</text>
<text x="430" y="91.0" fill="#444" font-size="11">cross-encoder</text>
<rect x="430" y="138" width="198.6" height="26" fill="#9aa0a6"/>
<text x="636.6" y="156.7" fill="#111" font-weight="400">0.764</text>
<text x="430" y="133.0" fill="#444" font-size="11">cosine + cross-encoder</text>
<text x="430" y="190.0" fill="#666" font-size="11">chosen signal cross-validated at 0.83</text>
</svg>